<mxfile host="65bd71144e">
    <diagram id="0dW7eQW7AdxT_7uN18Im" name="Page-1">
        <mxGraphModel dx="483" dy="386" grid="1" gridSize="10" guides="1" tooltips="1" connect="1" arrows="1" fold="1" page="1" pageScale="1" pageWidth="850" pageHeight="1100" math="0" shadow="0">
            <root>
                <mxCell id="0"/>
                <mxCell id="1" parent="0"/>
                <mxCell id="2" value="resources" style="shape=folder;fontStyle=1;tabWidth=110;tabHeight=30;tabPosition=left;html=1;boundedLbl=1;labelInHeader=1;container=1;collapsible=0;recursiveResize=0;" vertex="1" parent="1">
                    <mxGeometry x="40" y="30" width="220" height="130" as="geometry"/>
                </mxCell>
                <mxCell id="3" value="" style="html=1;" vertex="1" parent="2">
                    <mxGeometry width="200" height="80" relative="1" as="geometry">
                        <mxPoint x="10" y="40" as="offset"/>
                    </mxGeometry>
                </mxCell>
                <mxCell id="4" value="VV_COORDENADAS" style="whiteSpace=wrap;html=1;" vertex="1" parent="2">
                    <mxGeometry x="70" y="70" width="130" height="40" as="geometry"/>
                </mxCell>
                <mxCell id="5" value="SQLscrip" style="text;html=1;align=center;verticalAlign=middle;resizable=0;points=[];autosize=1;strokeColor=none;fillColor=none;" vertex="1" parent="2">
                    <mxGeometry x="10" y="40" width="70" height="30" as="geometry"/>
                </mxCell>
            </root>
        </mxGraphModel>
    </diagram>
</mxfile>